HIERARCHY
ROOT Hips
{
  OFFSET -33.9132 29.2015 117.021
  CHANNELS 6 Xposition Yposition Zposition Zrotation Xrotation Yrotation
  JOINT LeftUpLeg
  {
    OFFSET 8.64259 1.95398 -2.38835
    CHANNELS 3 Zrotation Xrotation Yrotation
    JOINT LeftLeg
    {
      OFFSET 43.7702 0 0
      CHANNELS 3 Zrotation Xrotation Yrotation
      JOINT LeftFoot
      {
        OFFSET 40.6238 0 0
        CHANNELS 3 Zrotation Xrotation Yrotation
        JOINT LeftToeBase
        {
          OFFSET 12.7242 0 0
          CHANNELS 3 Zrotation Xrotation Yrotation
          End Site
          {
            OFFSET 0 0 0
          }
        }
      }
    }
  }
  JOINT RightUpLeg
  {
    OFFSET -8.2249 1.95398 -2.59336
    CHANNELS 3 Zrotation Xrotation Yrotation
    JOINT RightLeg
    {
      OFFSET 43.5653 0 0
      CHANNELS 3 Zrotation Xrotation Yrotation
      JOINT RightFoot
      {
        OFFSET 40.6238 0 0
        CHANNELS 3 Zrotation Xrotation Yrotation
        JOINT RightToeBase
        {
          OFFSET 12.7242 0 0
          CHANNELS 3 Zrotation Xrotation Yrotation
          End Site
          {
            OFFSET 0 0 0
          }
        }
      }
    }
  }
  JOINT Spine
  {
    OFFSET 0.165834 0.87714 6.61349
    CHANNELS 3 Zrotation Xrotation Yrotation
    JOINT Spine1
    {
      OFFSET 7.38963 1.71661e-005 0
      CHANNELS 3 Zrotation Xrotation Yrotation
      JOINT Spine2
      {
        OFFSET 11.9445 1.14441e-005 0
        CHANNELS 3 Zrotation Xrotation Yrotation
        JOINT Spine3
        {
          OFFSET 14.7254 4.19617e-005 0
          CHANNELS 3 Zrotation Xrotation Yrotation
          JOINT Spine4
          {
            OFFSET 10.9679 0 0
            CHANNELS 3 Zrotation Xrotation Yrotation
            JOINT RightShoulder
            {
              OFFSET 2.46616 -1.6653 3.69651
              CHANNELS 3 Zrotation Xrotation Yrotation
              JOINT RightArm
              {
                OFFSET 13.0012 0 0
                CHANNELS 3 Zrotation Xrotation Yrotation
                JOINT RightForeArm
                {
                  OFFSET 28.7848 1.62311e-005 0
                  CHANNELS 3 Zrotation Xrotation Yrotation
                  JOINT RightHand
                  {
                    OFFSET 26.5688 1.62095e-005 0
                    CHANNELS 3 Zrotation Xrotation Yrotation
                    End Site
                    {
                      OFFSET 0 0 0
                    }
                  }
                }
              }
            }
            JOINT LeftShoulder
            {
              OFFSET 2.38034 -1.29275 -3.7523
              CHANNELS 3 Zrotation Xrotation Yrotation
              JOINT LeftArm
              {
                OFFSET 16.3182 6.07031e-005 0
                CHANNELS 3 Zrotation Xrotation Yrotation
                JOINT LeftForeArm
                {
                  OFFSET 27.0901 0 0
                  CHANNELS 3 Zrotation Xrotation Yrotation
                  JOINT LeftHand
                  {
                    OFFSET 24.5451 1.51738e-005 0
                    CHANNELS 3 Zrotation Xrotation Yrotation
                    End Site
                    {
                      OFFSET 0 0 0
                    }
                  }
                }
              }
            }
            JOINT Neck
            {
              OFFSET 5.0226 -0.0266342 0
              CHANNELS 3 Zrotation Xrotation Yrotation
              JOINT Head
              {
                OFFSET 6.69364 2.86102e-005 0
                CHANNELS 3 Zrotation Xrotation Yrotation
                End Site
                {
                  OFFSET 0 0 0
                }
              }
            }
          }
        }
      }
    }
  }
}
MOTION
Frames:	15
Frame Time:	0.0416667
7.68796 101.256 -4.17898 -102.451 -49.3246 -100.036 -174.493 -4.70429 90.3019 -11.867 8.94249 0.971669 69.3804 5.54916 -4.48435 19.0539 -10.0503 9.75945 172.811 -5.52535 87.7903 -11.7825 -8.52944 -1.04087 65.5163 -3.56245 0.835503 29.1857 -1.08777 3.75992 0.184654 7.89742 -90.0738 11.0793 0.333446 -0.179145 -0.591634 0.32519 -0.193645 -23.1271 0.371843 -0.0706553 -3.11447 0.37185 -0.0706563 89.4334 -28.6636 -108.423 50.656 4.06484 -6.40567 -5.1512 -39.7596 -5.36478 -18.3569 1.80737 -16.809 -89.4376 -49.1786 79.3992 -21.2318 -3.96394 -15.2898 -13.3574 33.4473 -0.0206451 9.47006 -0.907037 -14.2373 2.19628 2.48531 -0.504976 -6.06712 2.53264 0.0979355 
7.68553 101.295 -4.15189 -102.54 -49.2476 -100.111 -174.499 -4.51405 90.2454 -12.3411 7.91594 0.971466 70.0191 5.19169 -7.47934 20.1088 -12.6316 15.2704 172.928 -5.68193 87.8235 -11.592 -8.25496 -1.19175 65.7353 -3.68787 0.968581 28.8059 -0.863736 3.4881 0.224448 7.94108 -90.1163 10.9922 0.393007 -0.26884 -0.678763 0.380811 -0.285885 -23.2143 0.455634 -0.138291 -3.20167 0.455626 -0.138305 90.0863 -27.8534 -107.432 51.6638 3.48891 -6.77409 -5.13325 -39.477 -5.35481 -21.5753 1.87713 -15.3469 -89.6408 -49.6024 79.1818 -21.3653 -4.37926 -15.9569 -13.1071 34.3979 -0.0208768 8.87228 -0.861503 -14.6092 2.58755 2.23417 0.175078 -5.96614 2.18252 -0.16558 
7.69681 101.328 -4.15149 -102.524 -49.2109 -100.082 -174.388 -4.69211 90.4139 -12.3451 7.84655 0.856266 71.061 5.008 -10.5796 21.8604 -15.1482 21.585 172.968 -5.96819 87.8659 -11.0252 -8.46544 -1.23904 65.4762 -3.67666 0.780651 28.9997 -0.872675 3.18542 0.221348 7.92746 -90.0972 11.02 0.395668 -0.231223 -0.65092 0.385093 -0.248418 -23.1865 0.446862 -0.101617 -3.17387 0.446864 -0.101627 89.9089 -28.3152 -107.606 51.3384 3.66635 -6.68371 -5.19019 -40.3552 -5.38671 -21.7763 1.88838 -15.3179 -89.3538 -49.1196 79.5135 -21.6761 -4.20597 -15.9411 -13.1507 34.5383 -0.020912 8.7641 -0.875706 -14.9193 2.79165 2.28704 -0.126606 -6.18156 2.2819 -0.104004 
7.71496 101.354 -4.15479 -102.646 -49.1154 -100.151 -174.387 -4.72203 90.4097 -12.58 7.97642 0.873935 71.0521 4.85447 -10.947 22.3238 -15.5691 22.8165 172.993 -6.09894 87.8759 -10.9176 -8.36676 -1.28565 65.4464 -3.66053 0.964557 28.8075 -0.860837 3.47334 0.239953 7.92184 -90.1024 11.0186 0.430172 -0.245032 -0.652269 0.418966 -0.263736 -23.188 0.483925 -0.104414 -3.1753 0.483905 -0.104431 90.0778 -28.2777 -107.277 51.3171 3.672 -6.69544 -5.17118 -40.1948 -5.37452 -20.5299 1.93968 -16.2796 -89.3258 -49.1368 79.5594 -21.6512 -4.1333 -16.0269 -13.181 34.4828 -0.020898 9.08141 -0.895155 -14.7181 2.77957 2.29734 0.0327655 -5.94127 2.27286 -0.382654 
7.72586 101.345 -4.15087 -102.787 -48.9871 -100.174 -174.297 -4.88401 90.4087 -12.3356 7.85333 0.840914 70.2989 5.29454 -7.2773 20.3701 -12.2742 14.9899 172.999 -6.1694 87.9129 -11.0072 -8.53182 -1.27838 65.4643 -3.65582 0.909747 28.8441 -0.83856 3.31711 0.246667 7.91836 -90.1101 11.0153 0.440019 -0.261589 -0.6556 0.428087 -0.28071 -23.1913 0.498311 -0.11725 -3.17865 0.498295 -0.117256 90.0414 -28.3423 -107.326 51.2252 3.73619 -6.62768 -5.18556 -40.3248 -5.38366 -19.998 1.95098 -16.6393 -89.2932 -49.1475 79.6108 -21.814 -4.50676 -15.881 -12.9906 34.9826 -0.0210248 9.30899 -0.972084 -15.1815 3.05654 2.18865 0.0739955 -6.29856 2.16658 -0.608672 
7.75009 101.341 -4.15449 -102.857 -49.013 -100.243 -174.3 -4.83362 90.3865 -12.5524 7.97003 0.844512 70.6788 5.54407 -7.04119 19.1889 -12.9333 14.731 172.993 -6.26616 87.8909 -10.8946 -8.39418 -1.29654 65.5241 -3.7222 1.0671 28.7326 -0.843157 3.53114 0.238682 7.91645 -90.1231 11.0032 0.41806 -0.285508 -0.667748 0.405106 -0.303629 -23.2034 0.484536 -0.146659 -3.19071 0.484543 -0.146667 90.0899 -28.166 -107.298 51.305 3.69297 -6.64939 -5.18886 -40.3566 -5.38574 -19.8729 1.94044 -16.6546 -89.366 -49.1754 79.5067 -21.7087 -4.45455 -15.9872 -13.0964 34.8051 -0.0209794 8.98025 -0.947049 -15.4022 3.04507 2.13219 0.225788 -6.11305 2.08728 -0.702714 
7.75618 101.35 -4.1631 -102.933 -49.0423 -100.219 -174.206 -4.80136 90.494 -12.5827 8.00858 0.806166 70.0451 5.42476 -5.83108 19.5926 -10.7926 11.6639 173.044 -6.39447 87.9873 -10.7312 -8.27438 -1.29543 65.4155 -3.64746 1.11316 28.7362 -0.835934 3.49497 0.21879 7.91663 -90.1427 11.0059 0.369342 -0.319861 -0.66504 0.354916 -0.335812 -23.2005 0.448406 -0.194066 -3.18783 0.448401 -0.194065 89.9917 -28.1092 -107.521 51.3041 3.70709 -6.60861 -5.18391 -40.307 -5.38263 -20.015 1.91191 -16.4025 -89.4277 -49.3456 79.4488 -21.5153 -4.22618 -15.8381 -13.1954 34.4148 -0.020881 8.94768 -0.92329 -15.1413 2.90187 2.16504 0.338233 -5.94879 2.1016 -0.735226 
7.76929 101.343 -4.15606 -102.881 -48.8948 -100.185 -174.242 -4.99145 90.4851 -12.4567 7.87991 0.827149 71.9806 6.01932 -8.41648 17.2887 -15.9774 17.3215 173.104 -6.39814 87.9944 -10.696 -8.43523 -1.38305 65.4318 -3.65607 1.06396 28.814 -0.850699 3.42026 0.227304 7.92011 -90.1314 11.0305 0.391566 -0.299081 -0.640364 0.378057 -0.316032 -23.1759 0.463354 -0.167569 -3.16324 0.463384 -0.167554 89.8892 -28.3442 -107.634 51.0754 3.84185 -6.51291 -5.18479 -40.2793 -5.38359 -19.5754 1.89459 -16.5658 -89.3824 -49.0544 79.4566 -21.7974 -4.25747 -15.6966 -13.2015 33.482 -0.0206534 8.91983 -0.924533 -15.1278 2.85402 2.14324 0.092203 -6.08478 2.1209 -0.703487 
7.76202 101.353 -4.1258 -103.043 -48.7798 -100.322 -174.245 -5.07102 90.4459 -12.415 7.71074 0.832779 70.4424 5.29709 -7.53285 20.2196 -12.5221 15.2309 173.052 -6.54064 87.9248 -10.6861 -8.5452 -1.39807 65.4934 -3.68257 1.14174 28.7152 -0.821821 3.47318 0.227553 7.93045 -90.1308 11.0134 0.392438 -0.297913 -0.657489 0.378959 -0.314891 -23.193 0.463808 -0.166193 -3.18036 0.463838 -0.166181 89.965 -28.2165 -107.532 51.2939 3.7674 -6.44314 -5.16042 -39.9036 -5.3699 -19.4741 1.90198 -16.6721 -89.2855 -48.897 79.5706 -22.0973 -4.44191 -15.7682 -13.1183 34.1719 -0.0208207 9.10898 -0.937998 -15.1058 2.77516 2.11927 0.110961 -6.1289 2.0934 -0.659376 
7.77596 101.355 -4.0821 -103.012 -48.6729 -100.268 -174.211 -5.17775 90.3835 -12.3711 7.60885 0.809785 70.6942 5.92218 -5.56321 17.4632 -11.5747 10.6482 173.01 -6.53032 87.8931 -10.7174 -8.82855 -1.37514 65.4358 -3.65796 0.957 28.7452 -0.844805 3.51596 0.232325 7.93184 -90.1401 11.0081 0.397625 -0.316882 -0.66279 0.383282 -0.334086 -23.1983 0.474468 -0.182736 -3.18565 0.474476 -0.18273 90.0237 -28.1787 -107.427 51.4011 3.72521 -6.42583 -5.16032 -39.9026 -5.36987 -19.8881 1.93115 -16.5909 -89.2921 -48.9556 79.5728 -22.0909 -4.57086 -15.8265 -13.0687 33.8153 -0.0207335 9.12967 -0.941279 -15.0825 2.81142 2.05436 0.266355 -6.1466 2.01106 -0.905843 
7.75261 101.351 -4.04911 -102.987 -48.5631 -100.27 -174.237 -5.27706 90.2816 -12.2155 7.42996 0.812212 69.8867 5.91634 -3.3778 17.0526 -8.44058 4.97889 173.065 -6.48831 87.891 -10.8293 -8.76372 -1.45544 65.4911 -3.6572 1.09274 28.7457 -0.846031 3.52003 0.238963 7.93247 -90.1421 11.0028 0.409922 -0.322021 -0.668173 0.395342 -0.339753 -23.2037 0.487754 -0.183935 -3.19108 0.487748 -0.183932 90.0453 -28.2669 -107.348 51.2744 3.77963 -6.43278 -5.1855 -40.2919 -5.3839 -19.7651 1.91244 -16.5579 -89.3486 -48.9909 79.4943 -21.9958 -4.28916 -15.968 -13.1821 34.1757 -0.0208217 9.48074 -1.00192 -15.2252 2.81513 2.09415 0.135287 -6.15314 2.06057 -0.524449 
7.72185 101.4 -4.02206 -102.878 -48.4786 -100.118 -174.191 -5.21266 90.2895 -12.7543 7.11696 0.786257 69.691 5.4766 -3.60085 17.842 -8.26989 5.45964 173.063 -6.79863 87.9367 -10.0843 -8.96804 -1.42368 65.1196 -3.63428 0.989597 28.8425 -0.849714 3.36592 0.2446 7.93803 -90.159 10.9987 0.413294 -0.355876 -0.67227 0.397222 -0.373726 -23.2078 0.501128 -0.215214 -3.19514 0.501138 -0.215213 90.105 -28.071 -107.305 51.4547 3.67762 -6.49551 -5.19948 -40.5056 -5.39187 -19.9911 1.86155 -16.1242 -89.2961 -49.0191 79.5798 -21.9967 -4.15729 -16.0073 -13.273 33.8214 -0.020735 9.91736 -1.07203 -15.2982 2.89811 2.14198 0.316704 -6.07235 2.0814 -0.669158 
7.70371 101.396 -3.98428 -102.774 -48.5256 -100.149 -174.36 -5.12511 90.086 -12.7568 7.95749 0.909564 69.5298 5.63662 -2.96016 18.2013 -8.40226 6.04385 172.995 -6.59976 87.8302 -10.4092 -9.05611 -1.41676 65.4053 -3.73706 0.854471 28.532 -0.73381 3.42899 0.244453 7.91897 -90.1496 11.0365 0.41735 -0.337707 -0.634419 0.402088 -0.355756 -23.17 0.499558 -0.196661 -3.15732 0.499551 -0.19667 90.0225 -28.0005 -107.502 51.5443 3.73285 -6.21395 -5.20233 -40.5499 -5.39349 -20.3124 1.90096 -16.1672 -89.2907 -49.0456 79.5937 -22.1471 -4.39293 -15.9812 -13.074 34.9323 -0.0210119 9.67728 -0.985924 -14.904 2.72775 2.10563 0.297573 -5.90981 2.04869 -0.677489 
7.73008 101.376 -3.96128 -102.557 -48.5876 -100.088 -174.456 -4.89686 89.938 -12.647 7.33602 0.919525 69.7071 5.64076 -3.53288 17.1904 -9.08293 6.20897 172.934 -6.35938 87.6996 -10.5516 -8.96248 -1.40845 65.4434 -3.71498 1.06505 28.7767 -0.825173 3.37979 0.250168 7.90859 -90.1517 11.0573 0.427674 -0.342349 -0.613583 0.412172 -0.361468 -23.1492 0.510992 -0.197699 -3.13652 0.510986 -0.197711 90.1307 -27.8206 -107.354 51.6596 3.67582 -6.23052 -5.18101 -40.2181 -5.38148 -20.3386 1.88871 -16.0827 -89.5035 -49.2073 79.3054 -21.9801 -4.40583 -15.8923 -13.0761 34.7807 -0.0209732 9.50785 -0.952885 -14.7624 2.7685 2.08494 0.448323 -5.92604 2.00095 -0.584268 
7.62804 101.332 -3.92028 -102.532 -48.5886 -100.04 -174.385 -5.19803 90.1026 -12.0379 7.37295 0.874613 69.9375 5.91027 -3.67711 17.2687 -8.86185 5.91026 172.947 -6.20627 87.7502 -10.964 -8.9583 -1.37964 65.6475 -3.75391 0.95437 28.8094 -0.888475 3.58483 0.248921 7.91263 -90.1494 11.0492 0.42619 -0.335912 -0.621716 0.410902 -0.35677 -23.1573 0.508172 -0.191802 -3.14467 0.508179 -0.191801 89.9687 -27.9022 -107.652 51.5266 3.72104 -6.2722 -5.17266 -40.2077 -5.37542 -20.2082 1.86119 -15.9993 -89.4598 -49.2076 79.3716 -21.9757 -4.41778 -15.8098 -13.0261 34.5848 -0.0209237 9.23937 -0.89342 -14.4968 2.80584 2.1172 0.227325 -5.95199 2.06409 -0.412925 
